<?xml version="1.0" encoding="UTF-8"?>
<svg id="wifi" xmlns="http://www.w3.org/2000/svg" version="1.1" viewBox="0 0 300 300">
  <defs>
    <style>
      .cls-1 {
        fill: #666;
        stroke-width: 0px;
      }
    </style>
  </defs>
  <path class="cls-1" d="M79.8,103.6l14,14c31.1-31,81.4-31,112.5,0l14-14c-38.8-38.8-101.7-38.8-140.5,0Z"/>
  <path class="cls-1" d="M150,45c34.2,0,67,13.5,91.1,37.7l13.9-13.9c-58-58-152-58-210,0h0l14,14c24.1-24.3,56.9-37.9,91-37.8Z"/>
  <path class="cls-1" d="M113.8,137.6l13.9,14c12.3-12.3,32.2-12.3,44.6,0l13.9-14c-20-20-52.4-20-72.5,0h.1Z"/>
  <circle class="cls-1" cx="150" cy="183.2" r="20.7"/>
  <path class="cls-1" d="M62.4,221.5h13.3l4.8,25.3,7-25.3h13.2l7,25.2,4.8-25.2h13.2l-9.9,45.2h-13.7l-7.9-28.4-7.9,28.4h-13.7l-10.1-45.2h-.1Z"/>
  <path class="cls-1" d="M131,221.5h12.5v8.5h-12.5v-8.5ZM131,233.9h12.5v32.7h-12.5v-32.7h0Z"/>
  <path class="cls-1" d="M150.4,245.3h18.2v9.7h-18.2v-9.7Z"/>
  <path class="cls-1" d="M176,221.5h34.5v9.7h-20.5v7.9h17.5v9.1h-17.5v18.5h-14v-45.2h0Z"/>
  <path class="cls-1" d="M218.9,221.5h12.5v8.5h-12.5v-8.5ZM218.9,233.9h12.5v32.7h-12.5v-32.7h0Z"/>
</svg>