<?xml version="1.0" encoding="UTF-8"?>
<svg id="_レイヤー_1" data-name=" レイヤー 1" xmlns="http://www.w3.org/2000/svg" version="1.1" viewBox="0 0 300 300">
  <defs>
    <style>
      .cls-1 {
        fill: #666;
        stroke-width: 0px;
      }
    </style>
  </defs>
  <g id="rec">
    <path class="cls-1" d="M185.5,239.5c2.7-2.7,6.5-4.1,11.4-4.1s6.8.8,9,2.3c2.4,1.8,4.1,4.3,4.9,7.1l-8.3,1.9c-.2-.7-.5-1.4-.9-2-.5-.7-1.2-1.3-1.9-1.7-2.6-1.2-5.8-.4-7.5,2-.9,1.3-1.3,3.3-1.3,6s.5,5.7,1.5,6.9c2.3,2.3,6,2.5,8.4.4,1-1.3,1.7-2.8,2-4.4l8.2,2.5c-.5,2.1-1.3,4.1-2.6,5.8-1.2,1.5-2.7,2.7-4.4,3.5-2.1.9-4.4,1.3-6.7,1.2-2.8,0-5.5-.4-8.1-1.4-2.3-1.1-4.2-2.9-5.4-5.1-1.6-2.8-2.4-6-2.3-9.3,0-5,1.4-8.9,4.1-11.6h0Z"/>
    <polygon class="cls-1" points="151.9 235.9 177.1 235.9 177.1 242.4 161.3 242.4 161.3 247.3 175.9 247.3 175.9 253.5 161.3 253.5 161.3 259.5 177.5 259.5 177.5 266.4 151.9 266.4 151.9 235.9"/>
    <path class="cls-1" d="M100.4,239.7c6.3,0,11.5,5.1,11.5,11.5s-5.1,11.5-11.5,11.5-11.5-5.1-11.5-11.5h0c0-6.3,5.1-11.5,11.4-11.5h0Z"/>
    <path class="cls-1" d="M144.3,257.5c-.4-.7-.8-1.3-1.3-1.9-.4-.6-.9-1.1-1.5-1.6-.8-.5-1.6-.9-2.4-1.1,1.2-.2,2.3-.6,3.3-1.2,4.1-2.7,5.3-8.2,2.6-12.3-.9-1.3-2.2-2.3-3.7-2.8-2.2-.6-4.4-.8-6.7-.8h-15.7v30.4h9.4v-12.4h.8c.8,0,1.6.2,2.3.7.7.7,1.3,1.5,1.7,2.3l5,9.3h10.6l-4.5-8.8v.2h0ZM136.3,246.9c-.4.5-.9.9-1.5,1-.8.2-1.6.4-2.5.4h-4v-6.2h4.1c1.2-.1,2.5.1,3.5.8.6.6,1,1.4.9,2.3,0,.6-.2,1.2-.5,1.7h0Z"/>
    <path class="cls-1" d="M182.3,92.5v-35c.3-17.8-13.9-32.6-31.7-32.9-17.8-.3-32.6,13.9-32.9,31.7v36.1h-30.2v38.1c0,31.2,23.1,57.7,54.1,61.9v14.3h-23.8v17h64.5v-17h-23.8v-14.4c30.9-4.3,54-30.7,54.1-61.9v-38.2h-30.2v.3h-.1ZM195.5,130.7c0,25.2-20.4,45.5-45.5,45.5s-45.5-20.4-45.5-45.5v-21.1h13.2v24c-.3,17.8,13.9,32.6,31.7,32.9s32.6-13.9,32.9-31.7v-25.1h13.2v21.1h0Z"/>
  </g>
</svg>