<?xml version="1.0" encoding="UTF-8"?>
<svg id="_レイヤー_1" data-name=" レイヤー 1" xmlns="http://www.w3.org/2000/svg" version="1.1" viewBox="0 0 300 300">
  <defs>
    <style>
      .cls-1 {
        fill: #666;
        stroke-width: 0px;
      }
    </style>
  </defs>
  <g id="drink">
    <path class="cls-1" d="M214.3,43.2c4.7,0,8.6-3.8,8.6-8.6s-3.8-8.6-8.6-8.6h-38.3c-4,0-7.4,2.7-8.4,6.6l-7,29.2h-75c-4.7,0-8.6,3.9-8.6,8.6v.5l11.4,195c.3,4.6,4.1,8.1,8.6,8.1h95.6c4.6,0,8.3-3.5,8.6-8.1l11.5-195c.3-4.7-3.3-8.8-8.1-9.1h-26.3l4.4-18.6s31.6,0,31.6,0ZM156.5,79l-4.5,18.6h-56.2l-1.1-18.6h61.8ZM184.6,256.8h-79.4l-8.3-142h96.1l-8.3,142h0ZM195.1,79l-1.1,18.6h-24.3l4.5-18.6h20.9ZM107,125h24v122h-17l-7-122Z"/>
  </g>
</svg>