<?xml version="1.0" encoding="UTF-8"?>
<svg id="_レイヤー_1" data-name=" レイヤー 1" xmlns="http://www.w3.org/2000/svg" version="1.1" viewBox="0 0 300 300">
  <defs>
    <style>
      .cls-1 {
        fill: #666;
        stroke-width: 0px;
      }
    </style>
  </defs>
  <g id="whiteboard">
    <path class="cls-1" d="M277.1,166.9c-.8-.8-1.8-1.2-2.9-1.2h-6.9V43.8c0-1.1-.4-2.2-1.2-2.9-.8-.8-1.8-1.2-2.9-1.2H36.8c-1.1,0-2.1.4-2.9,1.2-.8.8-1.2,1.8-1.2,2.9v121.9h-6.9c-2.3,0-4.1,1.9-4.1,4.1v19.6c0,2.3,1.8,4.1,4.1,4.1h93.3l-3.8,65.2c0,2.4,1.7,4.4,4,4.6h60.1c2.4,0,4.3-1.9,4.3-4.3v-.3l-3.8-65.2h94.3c1.1,0,2.2-.4,2.9-1.2.8-.8,1.2-1.8,1.2-2.9v-19.6c0-1.1-.4-2.2-1.2-2.9h0ZM47,53.9h206v111.8H47V53.9ZM171.8,236.6h-44.5l2.5-43h39.4l2.5,43h0ZM266,181.3H33.9v-3.3h232.1v3.3Z"/>
  </g>
</svg>