<?xml version="1.0" encoding="UTF-8"?>
<svg id="_レイヤー_1" data-name=" レイヤー 1" xmlns="http://www.w3.org/2000/svg" version="1.1" viewBox="0 0 300 80">
  <defs>
    <style>
      .cls-1 {
        fill: #a5d1ff;
      }

      .cls-1, .cls-2, .cls-3, .cls-4 {
        stroke-width: 0px;
      }

      .cls-2 {
        fill: #527acc;
      }

      .cls-3 {
        fill: #334c80;
      }

      .cls-5 {
        fill: none;
        stroke: #fff;
        stroke-linecap: round;
        stroke-linejoin: round;
        stroke-width: .9px;
      }

      .cls-4 {
        fill: #fff;
      }
    </style>
  </defs>
  <g id="rental_space_LS7" data-name="rental space LS7">
    <path class="cls-4" d="M75.1,37v2.4h-3.8c-1.9,0-2.9.8-2.9,2.4v11.5h-4.8v-11.5c0-3.2,1.4-4.8,4.3-4.8,0,0,7.2,0,7.2,0Z"/>
    <path class="cls-4" d="M81.4,53.3c-2.9,0-4.3-1.6-4.3-4.8v-6.7c0-3.2,1.5-4.8,4.3-4.8h4.8c2.9,0,4.3,1.6,4.3,4.8v4.3h-8.7v2.4c0,1.6.6,2.4,1.9,2.4h6.2v2.4h-8.6,0ZM81.8,41.7v1.9h3.8v-1.9c0-1.6-.6-2.4-1.9-2.4s-1.9.8-1.9,2.4Z"/>
    <path class="cls-4" d="M92.4,37h9.1c2.9,0,4.3,1.6,4.3,4.8v11.5h-4.8v-11.5c0-1.6-1-2.4-2.9-2.4h-1v13.9h-4.8v-16.3h.1Z"/>
    <path class="cls-4" d="M109.7,29.7h4.8v7.3h6.7v2.4h-6.7v9.1c0,1.6.6,2.4,1.9,2.4h4.8v2.4h-7.2c-2.9,0-4.3-1.6-4.3-4.8v-9.2h-1.9v-2.3h1.9s0-7.3,0-7.3Z"/>
    <path class="cls-4" d="M127.5,53.3c-2.9,0-4.3-1.6-4.3-4.8v-1c0-3.2,1.4-4.8,4.3-4.8h4.3v-1c0-1.6-1-2.4-2.9-2.4h-5.3v-2.3h8.7c2.9,0,4.3,1.6,4.3,4.8v11.5h-9.1ZM129.9,45.1c-1.3,0-1.9.8-1.9,2.4v1c0,1.6.6,2.4,1.9,2.4h1.9v-5.8s-1.9,0-1.9,0Z"/>
    <path class="cls-4" d="M138.5,29.7v-2.4h6.7v26h-4.8v-23.6s-1.9,0-1.9,0Z"/>
    <path class="cls-4" d="M164.7,53.3h-8.7v-2.4h6.2c1.3,0,1.9-.7,1.9-2.2s-.6-2.4-1.9-2.4h-2.4c-2.9,0-4.3-1.6-4.3-4.8s1.5-4.5,4.3-4.5h8.7v2.4h-6.2c-1.3,0-1.9.7-1.9,2.2s.6,2.5,1.9,2.5h2.4c2.9,0,4.3,1.6,4.3,4.8s-1.4,4.5-4.3,4.5h0Z"/>
    <path class="cls-4" d="M180.1,37c2.9,0,4.3,1.6,4.3,4.8v6.7c0,3.2-1.4,4.8-4.3,4.8h-4.3v9.6h-4.8v-25.9h9.1ZM177.7,50.9c1.3,0,1.9-.8,1.9-2.4v-6.8c0-1.6-.6-2.4-1.9-2.4h-1.9v11.5h1.9Z"/>
    <path class="cls-4" d="M190.6,53.3c-2.9,0-4.3-1.6-4.3-4.8v-1c0-3.2,1.4-4.8,4.3-4.8h4.3v-1c0-1.6-1-2.4-2.9-2.4h-5.2v-2.3h8.6c2.9,0,4.3,1.6,4.3,4.8v11.5h-9.2,0ZM193,45.1c-1.3,0-1.9.8-1.9,2.4v1c0,1.6.6,2.4,1.9,2.4h1.9v-5.8s-1.9,0-1.9,0Z"/>
    <path class="cls-4" d="M206,53.3c-2.9,0-4.3-1.6-4.3-4.8v-6.7c0-3.2,1.4-4.8,4.3-4.8h8.6v2.4h-6.2c-1.3,0-1.9.8-1.9,2.4v6.7c0,1.6.6,2.4,1.9,2.4h6.2v2.4s-8.6,0-8.6,0Z"/>
    <path class="cls-4" d="M220.9,53.3c-2.9,0-4.3-1.6-4.3-4.8v-6.7c0-3.2,1.4-4.8,4.3-4.8h4.8c2.9,0,4.3,1.6,4.3,4.8v4.3h-8.6v2.4c0,1.6.6,2.4,1.9,2.4h6.3v2.4s-8.7,0-8.7,0ZM221.4,41.7v1.9h3.9v-1.9c0-1.6-.6-2.4-1.9-2.4s-1.9.8-1.9,2.4h-.1Z"/>
    <path class="cls-4" d="M240.4,53.3v-26h4l5,15.5,4.9-15.5h4v26h-4.8v-15.6l-4.2,13-4.2-13v15.5h-4.8.1Z"/>
    <path class="cls-4" d="M264.5,53.3c-2.9,0-4.3-1.6-4.3-4.8v-6.7c0-3.2,1.4-4.8,4.3-4.8h4.3v-9.6h4.8v26h-9.1,0ZM266.9,39.3c-1.3,0-1.9.8-1.9,2.4v6.7c0,1.6.6,2.4,1.9,2.4h1.9v-11.5s-1.9,0-1.9,0Z"/>
    <path class="cls-4" d="M275.6,53.3v-26h3.8l7.7,16.7v-16.7h4.8v26h-3.8l-7.7-16.7v16.7h-4.8Z"/>
  </g>
  <g id="_マーク" data-name=" マーク">
    <polygon class="cls-3" points="34.5 23.5 29.3 18.3 8.1 39.6 25.5 57 30 52.5 17.8 40.2 34.5 23.5"/>
    <polygon class="cls-5" points="34.5 23.5 29.3 18.3 8.1 39.6 25.5 57 30 52.5 17.8 40.2 34.5 23.5"/>
    <polygon class="cls-2" points="51.4 40.4 34.5 23.5 29.8 28.2 41.8 40.2 25.3 56.7 30.2 61.7 51.4 40.4"/>
    <polygon class="cls-5" points="51.4 40.4 34.5 23.5 29.8 28.2 41.8 40.2 25.3 56.7 30.2 61.7 51.4 40.4"/>
    <path class="cls-1" d="M28.4,29.6l-9.2,9.2c-.8.8-.7,2.1,0,2.9h0l9.1,9.1c.8.8,2,.8,2.9,0h0l9.2-9.2c.8-.8.7-2.1,0-2.9h0l-9.1-9.1c-.8-.8-2-.8-2.9,0h0Z"/>
    <path class="cls-5" d="M28.4,29.6l-9.2,9.2c-.8.8-.7,2.1,0,2.9h0l9.1,9.1c.8.8,2,.8,2.9,0h0l9.2-9.2c.8-.8.7-2.1,0-2.9h0l-9.1-9.1c-.8-.8-2-.8-2.9,0h0Z"/>
  </g>
</svg>